<svg width="40" height="40" viewBox="0 0 40 40" fill="none" xmlns="http://www.w3.org/2000/svg">
<g id="Group 1">
<g id="cart 1">
<path id="Vector" d="M16.6667 32.5C16.6667 33.8817 15.5467 35 14.1667 35C12.7867 35 11.6667 33.8817 11.6667 32.5C11.6667 31.12 12.7867 30 14.1667 30C15.5467 30 16.6667 31.12 16.6667 32.5ZM22.5 30C21.12 30 20 31.1183 20 32.5C20 33.8817 21.12 35 22.5 35C23.88 35 25 33.8817 25 32.5C25 31.12 23.88 30 22.5 30ZM24.7267 21.6667L28.0217 10H0L4.89667 21.6667H24.7267ZM33.0083 5L27.2883 25H6.29333L5.435 27.5H27.5L35.5467 8.33333H38.7617L40 5H33.0083Z" fill="black"/>
<path id="wheels" d="M20 32.5C20 31.1183 21.12 30 22.5 30C23.88 30 25 31.12 25 32.5C25 33.8817 23.88 35 22.5 35C21.12 35 20 33.8817 20 32.5Z" fill="black"/>
<path id="wheels_2" d="M14.1666 35C15.5466 35 16.6666 33.8817 16.6666 32.5C16.6666 31.12 15.5466 30 14.1666 30C12.7866 30 11.6666 31.12 11.6666 32.5C11.6666 33.8817 12.7866 35 14.1666 35Z" fill="black"/>
<path id="bucket" d="M28.0217 10L24.7267 21.6667H4.89667L0 10H28.0217Z" fill="black"/>
</g>
</g>
</svg>
