<svg width="43" height="43" viewBox="0 0 43 43" fill="none" xmlns="http://www.w3.org/2000/svg">
<path d="M35.6667 23.3372L32.0833 41.4384H10.5833L7 23.3372L21.3333 10L35.6667 23.3372ZM23.125 34.2717C23.125 33.2827 22.3223 32.48 21.3333 32.48C20.3443 32.48 19.5417 33.2827 19.5417 34.2717C19.5417 35.2607 20.3443 36.0634 21.3333 36.0634C22.3223 36.0634 23.125 35.2607 23.125 34.2717ZM24.9167 25.3134C24.9167 23.3336 23.3113 21.73 21.3333 21.73C19.3553 21.73 17.75 23.3336 17.75 25.3134C17.75 27.2932 19.3553 28.8967 21.3333 28.8967C23.3113 28.8967 24.9167 27.2932 24.9167 25.3134Z" fill="black"/>
<path d="M40.5615 22.5983L43 19.9735L21.5 0L0 19.9466L2.43846 22.5714L21.5 4.89125L40.5615 22.5983Z" fill="black"/>
<path d="M17.9348 25.7602C19.853 26.0433 24.4903 26.4395 26.569 25.3798L26.5362 25.1464C25.9127 25.5201 24.8348 25.7425 24.2349 25.7078C23.5709 24.5062 22.5195 23.9994 21.1388 24.0008C20.3967 24.0015 20.0267 24.3267 19.3043 24.4966C18.4519 24.6971 17.6208 24.2382 17.1033 24.9249C16.7954 25.3336 16.3937 25.8013 16.2334 26.3563C17.4839 25.9968 18.3635 26.7398 19.8639 27.6312C22.0715 28.9426 24.0877 27.7852 24.4008 26.0415C22.7824 26.2473 18.7308 26.254 17.9348 25.7602Z" fill="#1DA1F2"/>
<path d="M24.2067 25.203C22.2762 25.0206 17.6245 24.8676 15.6042 26.0347L15.6491 26.2661C16.2522 25.8602 17.317 25.5817 17.9179 25.585C18.6439 26.7502 19.7204 27.2012 21.0991 27.1276C21.8402 27.0881 22.1926 26.744 22.9051 26.5365C23.7458 26.2916 24.5998 26.7064 25.0807 25.9935C25.3668 25.5693 25.7435 25.0812 25.8745 24.5186C24.6445 24.943 23.7272 24.2471 22.1823 23.4354C19.909 22.2414 17.9562 23.5027 17.7347 25.2604C19.3402 24.9702 23.3858 24.7514 24.2067 25.203Z" fill="#1DA1F2"/>
</svg>
